<?xml version="1.0" standalone="no"?><!DOCTYPE svg PUBLIC "-//W3C//DTD SVG 1.1//EN" "http://www.w3.org/Graphics/SVG/1.1/DTD/svg11.dtd"><svg t="1626173775244" class="icon" viewBox="0 0 1024 1024" version="1.1" xmlns="http://www.w3.org/2000/svg" p-id="4156" xmlns:xlink="http://www.w3.org/1999/xlink" width="200" height="200"><defs><style type="text/css"></style></defs><path d="M511.445333 64c-217.429333 0-408.234667 158.549333-442.197333 380.074667-37.546667 244.522667 130.304 473.173333 374.826667 510.72 23.04 3.498667 45.909333 5.205333 68.48 5.205333 217.429333 0 408.234667-158.549333 442.197333-380.074667 37.546667-244.522667-130.304-473.173333-374.826667-510.72a451.584 451.584 0 0 0-68.48-5.205333m0 64c19.498667 0 39.253333 1.536 58.752 4.48a382.72 382.72 0 0 1 251.306667 152.32 382.72 382.72 0 0 1 69.973333 285.44 382.464 382.464 0 0 1-130.56 234.069333 383.829333 383.829333 0 0 1-558.421333-65.109333 382.72 382.72 0 0 1-69.973333-285.44A382.464 382.464 0 0 1 263.04 219.733333 383.829333 383.829333 0 0 1 511.445333 128" p-id="4157"></path><path d="M512 320a32 32 0 0 1 31.701333 27.648l0.298667 4.352v128h128a32 32 0 0 1 31.701333 27.648L704 512a32 32 0 0 1-27.648 31.701333l-4.352 0.298667h-128v128a32 32 0 0 1-27.648 31.701333L512 704a32 32 0 0 1-31.701333-27.648l-0.298667-4.352v-128h-128a32 32 0 0 1-31.701333-27.648L320 512a32 32 0 0 1 27.648-31.701333l4.352-0.298667h128v-128a32 32 0 0 1 27.648-31.701333L512 320z" p-id="4158"></path></svg>