<?xml version="1.0" standalone="no"?><!DOCTYPE svg PUBLIC "-//W3C//DTD SVG 1.1//EN" "http://www.w3.org/Graphics/SVG/1.1/DTD/svg11.dtd"><svg t="1626173821953" class="icon" viewBox="0 0 1024 1024" version="1.1" xmlns="http://www.w3.org/2000/svg" p-id="6457" xmlns:xlink="http://www.w3.org/1999/xlink" width="200" height="200"><defs><style type="text/css"></style></defs><path d="M493 952.1c-58 0-114.2-11.4-167.2-33.8-51.1-21.6-97.1-52.6-136.5-92-39.4-39.4-70.4-85.3-92-136.5-22.4-53-33.8-109.2-33.8-167.2 0-58 11.4-114.2 33.8-167.2 21.6-51.1 52.6-97.1 92-136.5 39.4-39.4 85.3-70.4 136.5-92 53-22.4 109.2-33.8 167.2-33.8v53.7c-207.2 0-375.7 168.6-375.7 375.7 0 207.2 168.6 375.7 375.7 375.7 207.2 0 375.7-168.6 375.7-375.7h53.7c0 58-11.4 114.2-33.8 167.2-21.6 51.1-52.6 97.1-92 136.5-39.4 39.4-85.3 70.4-136.5 92-52.9 22.5-109.2 33.9-167.1 33.9z" fill="#333333" p-id="6458"></path><path d="M600.3 418.7v-283c-17.5-2.8-35.4-4.7-53.7-4.7v338h338c0-17.1-1.7-33.9-4.2-50.3H600.3z" fill="#333333" p-id="6459"></path><path d="M934.7 418.7C912.2 244.1 774.5 105.5 600.3 81.5c-17.6-2.4-35.4-4.1-53.7-4.1V131c18.3 0 36.1 1.9 53.7 4.7 144.5 23.2 258.4 138 280.1 283 2.5 16.5 4.2 33.2 4.2 50.3h53.7c0-17.1-1.4-33.8-3.6-50.3z" fill="#333333" p-id="6460"></path></svg>